<mxfile host="65bd71144e">
    <diagram id="GoSXiqhEjkwd7hs7oLC1" name="Page-1">
        <mxGraphModel dx="4254" dy="4893" grid="1" gridSize="10" guides="1" tooltips="1" connect="1" arrows="1" fold="1" page="1" pageScale="1" pageWidth="827" pageHeight="1169" math="0" shadow="0">
            <root>
                <mxCell id="0"/>
                <mxCell id="1" parent="0"/>
                <mxCell id="nqFcclDZsv5z8-_tzMHj-1" value="" style="edgeStyle=orthogonalEdgeStyle;rounded=0;orthogonalLoop=1;jettySize=auto;html=1;fontSize=8;entryX=0.5;entryY=0;entryDx=0;entryDy=0;" parent="1" source="nqFcclDZsv5z8-_tzMHj-2" target="nqFcclDZsv5z8-_tzMHj-12" edge="1">
                    <mxGeometry relative="1" as="geometry">
                        <mxPoint x="-1044.9" y="-3330" as="targetPoint"/>
                    </mxGeometry>
                </mxCell>
                <mxCell id="nqFcclDZsv5z8-_tzMHj-2" value="&lt;font style=&quot;font-size: 10px&quot;&gt;sp_req_current_time&lt;br&gt;현재 시간을 구한후&lt;br&gt;@REG_DT에 반환한다.&amp;nbsp;&amp;nbsp;&lt;/font&gt;" style="shape=hexagon;perimeter=hexagonPerimeter2;whiteSpace=wrap;html=1;fixedSize=1;shadow=0;strokeWidth=1;spacing=6;spacingTop=-4;" parent="1" vertex="1">
                    <mxGeometry x="-1160.97" y="-3460" width="186" height="80" as="geometry"/>
                </mxCell>
                <mxCell id="nqFcclDZsv5z8-_tzMHj-169" style="edgeStyle=elbowEdgeStyle;rounded=0;orthogonalLoop=1;jettySize=auto;html=1;exitX=1;exitY=0.5;exitDx=0;exitDy=0;entryX=1;entryY=0.5;entryDx=0;entryDy=0;fontSize=8;" parent="1" source="nqFcclDZsv5z8-_tzMHj-9" target="nqFcclDZsv5z8-_tzMHj-166" edge="1">
                    <mxGeometry relative="1" as="geometry">
                        <Array as="points">
                            <mxPoint x="-490" y="-2950"/>
                            <mxPoint x="-660" y="-1980"/>
                        </Array>
                    </mxGeometry>
                </mxCell>
                <mxCell id="nqFcclDZsv5z8-_tzMHj-9" value="&lt;font style=&quot;font-size: 10px&quot;&gt;EXCEPTION HANDLER&lt;br&gt;SQLSTATE 23000&lt;/font&gt;" style="shape=process;whiteSpace=wrap;html=1;backgroundOutline=1;fontSize=8;" parent="1" vertex="1">
                    <mxGeometry x="-740" y="-3160" width="180" height="100" as="geometry"/>
                </mxCell>
                <mxCell id="nqFcclDZsv5z8-_tzMHj-11" value="" style="edgeStyle=orthogonalEdgeStyle;rounded=0;orthogonalLoop=1;jettySize=auto;html=1;" parent="1" source="nqFcclDZsv5z8-_tzMHj-12" target="nqFcclDZsv5z8-_tzMHj-17" edge="1">
                    <mxGeometry relative="1" as="geometry"/>
                </mxCell>
                <mxCell id="nqFcclDZsv5z8-_tzMHj-12" value="&lt;font style=&quot;font-size: 10px&quot;&gt;sp_req_user_exists_by_id&lt;br&gt;사용자가 존재하는지 검사한 후 그 결과를 @rtn_val로 반환한다&lt;/font&gt;" style="shape=hexagon;perimeter=hexagonPerimeter2;whiteSpace=wrap;html=1;fixedSize=1;shadow=0;strokeWidth=1;spacing=6;spacingTop=-4;" parent="1" vertex="1">
                    <mxGeometry x="-1165.94" y="-3310" width="195.94" height="80" as="geometry"/>
                </mxCell>
                <mxCell id="nqFcclDZsv5z8-_tzMHj-13" style="edgeStyle=orthogonalEdgeStyle;rounded=0;orthogonalLoop=1;jettySize=auto;html=1;entryX=0;entryY=0.5;entryDx=0;entryDy=0;fontSize=8;" parent="1" source="nqFcclDZsv5z8-_tzMHj-17" target="nqFcclDZsv5z8-_tzMHj-9" edge="1">
                    <mxGeometry relative="1" as="geometry"/>
                </mxCell>
                <mxCell id="nqFcclDZsv5z8-_tzMHj-14" value="FALSE" style="edgeLabel;html=1;align=center;verticalAlign=middle;resizable=0;points=[];fontSize=8;" parent="nqFcclDZsv5z8-_tzMHj-13" vertex="1" connectable="0">
                    <mxGeometry x="-0.7825" relative="1" as="geometry">
                        <mxPoint x="20" as="offset"/>
                    </mxGeometry>
                </mxCell>
                <mxCell id="nqFcclDZsv5z8-_tzMHj-15" value="" style="edgeStyle=orthogonalEdgeStyle;rounded=0;orthogonalLoop=1;jettySize=auto;html=1;fontSize=8;entryX=0.5;entryY=0;entryDx=0;entryDy=0;" parent="1" source="nqFcclDZsv5z8-_tzMHj-17" target="nqFcclDZsv5z8-_tzMHj-24" edge="1">
                    <mxGeometry relative="1" as="geometry">
                        <mxPoint x="-1020" y="-3010" as="targetPoint"/>
                    </mxGeometry>
                </mxCell>
                <mxCell id="nqFcclDZsv5z8-_tzMHj-16" value="TRUE: 개설성공" style="edgeLabel;html=1;align=center;verticalAlign=middle;resizable=0;points=[];fontSize=8;" parent="nqFcclDZsv5z8-_tzMHj-15" vertex="1" connectable="0">
                    <mxGeometry x="-0.258" y="-1" relative="1" as="geometry">
                        <mxPoint as="offset"/>
                    </mxGeometry>
                </mxCell>
                <mxCell id="nqFcclDZsv5z8-_tzMHj-17" value="&lt;font style=&quot;font-size: 10px&quot;&gt;사용자 존재?&lt;br&gt;@rtn_val = 0&lt;/font&gt;" style="rhombus;whiteSpace=wrap;html=1;shadow=0;strokeWidth=1;spacing=6;spacingTop=-4;" parent="1" vertex="1">
                    <mxGeometry x="-1177.97" y="-3160" width="220" height="100" as="geometry"/>
                </mxCell>
                <mxCell id="nqFcclDZsv5z8-_tzMHj-20" value="" style="edgeStyle=orthogonalEdgeStyle;rounded=0;orthogonalLoop=1;jettySize=auto;html=1;fontSize=8;entryX=0.5;entryY=0;entryDx=0;entryDy=0;" parent="1" source="nqFcclDZsv5z8-_tzMHj-24" target="nqFcclDZsv5z8-_tzMHj-142" edge="1">
                    <mxGeometry relative="1" as="geometry">
                        <mxPoint x="-1040" y="-2840" as="targetPoint"/>
                    </mxGeometry>
                </mxCell>
                <mxCell id="nqFcclDZsv5z8-_tzMHj-21" value="TRUE" style="edgeLabel;html=1;align=center;verticalAlign=middle;resizable=0;points=[];fontSize=8;" parent="nqFcclDZsv5z8-_tzMHj-20" vertex="1" connectable="0">
                    <mxGeometry x="-0.3102" relative="1" as="geometry">
                        <mxPoint x="1" as="offset"/>
                    </mxGeometry>
                </mxCell>
                <mxCell id="16" value="" style="edgeStyle=orthogonalEdgeStyle;html=1;fontSize=8;" edge="1" parent="1" source="nqFcclDZsv5z8-_tzMHj-24" target="15">
                    <mxGeometry relative="1" as="geometry"/>
                </mxCell>
                <mxCell id="17" value="FALSE" style="edgeLabel;html=1;align=center;verticalAlign=middle;resizable=0;points=[];fontSize=8;" vertex="1" connectable="0" parent="16">
                    <mxGeometry x="-0.1844" y="-1" relative="1" as="geometry">
                        <mxPoint as="offset"/>
                    </mxGeometry>
                </mxCell>
                <mxCell id="nqFcclDZsv5z8-_tzMHj-24" value="&lt;font style=&quot;font-size: 10px&quot;&gt;방문종료일이 존재하는가?&lt;br&gt;IN_VISIT_END_AT IS NOT NULL&lt;/font&gt;" style="rhombus;whiteSpace=wrap;html=1;shadow=0;strokeWidth=1;spacing=6;spacingTop=-4;" parent="1" vertex="1">
                    <mxGeometry x="-1177.97" y="-2990" width="220" height="100" as="geometry"/>
                </mxCell>
                <mxCell id="nqFcclDZsv5z8-_tzMHj-100" style="edgeStyle=elbowEdgeStyle;rounded=0;orthogonalLoop=1;jettySize=auto;html=1;entryX=0.5;entryY=0;entryDx=0;entryDy=0;fontSize=8;exitX=0.5;exitY=1;exitDx=0;exitDy=0;" parent="1" source="nqFcclDZsv5z8-_tzMHj-98" target="46" edge="1">
                    <mxGeometry relative="1" as="geometry">
                        <mxPoint x="-1067.9700000000003" y="-1900" as="targetPoint"/>
                        <Array as="points">
                            <mxPoint x="-1068" y="-1920"/>
                        </Array>
                    </mxGeometry>
                </mxCell>
                <mxCell id="nqFcclDZsv5z8-_tzMHj-101" value="TRUE" style="edgeLabel;html=1;align=center;verticalAlign=middle;resizable=0;points=[];fontSize=8;" parent="nqFcclDZsv5z8-_tzMHj-100" vertex="1" connectable="0">
                    <mxGeometry x="-0.2961" y="-2" relative="1" as="geometry">
                        <mxPoint x="-1" as="offset"/>
                    </mxGeometry>
                </mxCell>
                <mxCell id="39" value="" style="edgeStyle=orthogonalEdgeStyle;html=1;fontSize=8;entryX=1;entryY=0.5;entryDx=0;entryDy=0;" edge="1" parent="1" source="nqFcclDZsv5z8-_tzMHj-98" target="45">
                    <mxGeometry relative="1" as="geometry">
                        <mxPoint x="-1230" y="-1980" as="targetPoint"/>
                    </mxGeometry>
                </mxCell>
                <mxCell id="40" value="FALSE" style="edgeLabel;html=1;align=center;verticalAlign=middle;resizable=0;points=[];fontSize=8;" vertex="1" connectable="0" parent="39">
                    <mxGeometry x="-0.1699" relative="1" as="geometry">
                        <mxPoint as="offset"/>
                    </mxGeometry>
                </mxCell>
                <mxCell id="nqFcclDZsv5z8-_tzMHj-98" value="&lt;font style=&quot;font-size: 10px&quot;&gt;폐기물 배출 시작일이 존재하는가?&lt;br&gt;@OPEN_AT = IN_OPEN_AT&lt;/font&gt;" style="rhombus;whiteSpace=wrap;html=1;shadow=0;strokeWidth=1;spacing=6;spacingTop=-4;" parent="1" vertex="1">
                    <mxGeometry x="-1177.97" y="-2060" width="220" height="100" as="geometry"/>
                </mxCell>
                <mxCell id="nqFcclDZsv5z8-_tzMHj-106" value="" style="edgeStyle=elbowEdgeStyle;rounded=0;orthogonalLoop=1;jettySize=auto;html=1;fontSize=8;entryX=0.5;entryY=0;entryDx=0;entryDy=0;exitX=0.5;exitY=1;exitDx=0;exitDy=0;" parent="1" source="46" target="47" edge="1">
                    <mxGeometry relative="1" as="geometry">
                        <mxPoint x="-1067.9699999999998" y="-1760" as="targetPoint"/>
                        <mxPoint x="-1067.6666666666665" y="-1820" as="sourcePoint"/>
                    </mxGeometry>
                </mxCell>
                <mxCell id="nqFcclDZsv5z8-_tzMHj-147" value="" style="edgeStyle=elbowEdgeStyle;rounded=0;orthogonalLoop=1;jettySize=auto;html=1;fontSize=8;exitX=0.5;exitY=1;exitDx=0;exitDy=0;entryX=0.5;entryY=0;entryDx=0;entryDy=0;" parent="1" source="47" target="nqFcclDZsv5z8-_tzMHj-113" edge="1">
                    <mxGeometry relative="1" as="geometry">
                        <mxPoint x="-1068.1428571428573" y="-1660.0785714285712" as="sourcePoint"/>
                        <mxPoint x="-1030" y="-1600" as="targetPoint"/>
                    </mxGeometry>
                </mxCell>
                <mxCell id="nqFcclDZsv5z8-_tzMHj-115" style="edgeStyle=elbowEdgeStyle;rounded=0;orthogonalLoop=1;jettySize=auto;html=1;entryX=1;entryY=0.5;entryDx=0;entryDy=0;fontSize=8;" parent="1" source="nqFcclDZsv5z8-_tzMHj-113" target="nqFcclDZsv5z8-_tzMHj-114" edge="1">
                    <mxGeometry relative="1" as="geometry"/>
                </mxCell>
                <mxCell id="nqFcclDZsv5z8-_tzMHj-116" value="FALSE" style="edgeLabel;html=1;align=center;verticalAlign=middle;resizable=0;points=[];fontSize=8;" parent="nqFcclDZsv5z8-_tzMHj-115" vertex="1" connectable="0">
                    <mxGeometry x="-0.4491" y="1" relative="1" as="geometry">
                        <mxPoint x="-28" y="-1" as="offset"/>
                    </mxGeometry>
                </mxCell>
                <mxCell id="nqFcclDZsv5z8-_tzMHj-119" value="" style="edgeStyle=elbowEdgeStyle;rounded=0;orthogonalLoop=1;jettySize=auto;html=1;fontSize=8;entryX=0.5;entryY=0;entryDx=0;entryDy=0;exitX=0.5;exitY=1;exitDx=0;exitDy=0;" parent="1" source="nqFcclDZsv5z8-_tzMHj-113" target="nqFcclDZsv5z8-_tzMHj-154" edge="1">
                    <mxGeometry relative="1" as="geometry">
                        <mxPoint x="-1068" y="-1450" as="targetPoint"/>
                        <Array as="points">
                            <mxPoint x="-1068" y="-1460"/>
                            <mxPoint x="-1050" y="-1450"/>
                        </Array>
                    </mxGeometry>
                </mxCell>
                <mxCell id="nqFcclDZsv5z8-_tzMHj-120" value="TRUE" style="edgeLabel;html=1;align=center;verticalAlign=middle;resizable=0;points=[];fontSize=8;" parent="nqFcclDZsv5z8-_tzMHj-119" vertex="1" connectable="0">
                    <mxGeometry x="-0.1926" relative="1" as="geometry">
                        <mxPoint as="offset"/>
                    </mxGeometry>
                </mxCell>
                <mxCell id="nqFcclDZsv5z8-_tzMHj-113" value="&lt;font style=&quot;font-size: 10px&quot;&gt;현재 사용자가 배출자인가?@USER_CURRENT_TYPE_CODE = 2&lt;/font&gt;" style="rhombus;whiteSpace=wrap;html=1;shadow=0;strokeWidth=1;spacing=6;spacingTop=-4;" parent="1" vertex="1">
                    <mxGeometry x="-1177.97" y="-1600" width="220" height="100" as="geometry"/>
                </mxCell>
                <mxCell id="nqFcclDZsv5z8-_tzMHj-114" value="&lt;font style=&quot;font-size: 10px&quot;&gt;폐기물배출종료일=입력값&lt;/font&gt;" style="whiteSpace=wrap;html=1;shadow=0;strokeWidth=1;spacing=6;spacingTop=-4;" parent="1" vertex="1">
                    <mxGeometry x="-1484.05" y="-1580" width="224.05" height="60" as="geometry"/>
                </mxCell>
                <mxCell id="nqFcclDZsv5z8-_tzMHj-143" value="" style="edgeStyle=elbowEdgeStyle;rounded=0;orthogonalLoop=1;jettySize=auto;html=1;fontSize=8;entryX=0.5;entryY=0;entryDx=0;entryDy=0;" parent="1" source="nqFcclDZsv5z8-_tzMHj-142" target="2" edge="1">
                    <mxGeometry relative="1" as="geometry"/>
                </mxCell>
                <mxCell id="nqFcclDZsv5z8-_tzMHj-142" value="&lt;font style=&quot;font-size: 10px&quot;&gt;@VISIT_END_AT=방문종료일 + 23:59:59&lt;br&gt;@REF_DATE =&amp;nbsp;@VISIT_END_AT&lt;/font&gt;" style="whiteSpace=wrap;html=1;shadow=0;strokeWidth=1;spacing=6;spacingTop=-4;" parent="1" vertex="1">
                    <mxGeometry x="-1175.94" y="-2800" width="215.94" height="60" as="geometry"/>
                </mxCell>
                <mxCell id="nqFcclDZsv5z8-_tzMHj-156" value="" style="edgeStyle=elbowEdgeStyle;rounded=0;orthogonalLoop=1;jettySize=auto;html=1;fontSize=8;" parent="1" source="nqFcclDZsv5z8-_tzMHj-154" target="nqFcclDZsv5z8-_tzMHj-155" edge="1">
                    <mxGeometry relative="1" as="geometry"/>
                </mxCell>
                <mxCell id="nqFcclDZsv5z8-_tzMHj-154" value="sp_req_user_affiliation_by_user_id&lt;br&gt;사용자의 소속사이트를 구한 후 그 값을&amp;nbsp;@BELONG_TO에 반환한다" style="shape=hexagon;perimeter=hexagonPerimeter2;whiteSpace=wrap;html=1;fixedSize=1;shadow=0;strokeWidth=1;spacing=6;spacingTop=-4;" parent="1" vertex="1">
                    <mxGeometry x="-1175.92" y="-1430" width="215.92" height="80" as="geometry"/>
                </mxCell>
                <mxCell id="nqFcclDZsv5z8-_tzMHj-159" value="" style="edgeStyle=elbowEdgeStyle;rounded=0;orthogonalLoop=1;jettySize=auto;html=1;fontSize=8;" parent="1" source="nqFcclDZsv5z8-_tzMHj-155" target="nqFcclDZsv5z8-_tzMHj-158" edge="1">
                    <mxGeometry relative="1" as="geometry"/>
                </mxCell>
                <mxCell id="48" value="TRUE" style="edgeLabel;html=1;align=center;verticalAlign=middle;resizable=0;points=[];fontSize=10;" vertex="1" connectable="0" parent="nqFcclDZsv5z8-_tzMHj-159">
                    <mxGeometry x="-0.2774" relative="1" as="geometry">
                        <mxPoint as="offset"/>
                    </mxGeometry>
                </mxCell>
                <mxCell id="nqFcclDZsv5z8-_tzMHj-171" value="" style="edgeStyle=elbowEdgeStyle;rounded=0;orthogonalLoop=1;jettySize=auto;html=1;fontSize=8;" parent="1" source="nqFcclDZsv5z8-_tzMHj-155" target="nqFcclDZsv5z8-_tzMHj-170" edge="1">
                    <mxGeometry relative="1" as="geometry"/>
                </mxCell>
                <mxCell id="49" value="FALSE" style="edgeLabel;html=1;align=center;verticalAlign=middle;resizable=0;points=[];fontSize=10;" vertex="1" connectable="0" parent="nqFcclDZsv5z8-_tzMHj-171">
                    <mxGeometry x="-0.1532" y="-1" relative="1" as="geometry">
                        <mxPoint as="offset"/>
                    </mxGeometry>
                </mxCell>
                <mxCell id="nqFcclDZsv5z8-_tzMHj-155" value="&lt;font style=&quot;font-size: 10px&quot;&gt;사용자가 개인?&lt;br&gt;@BELONG_TO = 0&lt;/font&gt;" style="rhombus;whiteSpace=wrap;html=1;shadow=0;strokeWidth=1;spacing=6;spacingTop=-4;" parent="1" vertex="1">
                    <mxGeometry x="-1177.97" y="-1280" width="220" height="100" as="geometry"/>
                </mxCell>
                <mxCell id="nqFcclDZsv5z8-_tzMHj-161" value="" style="edgeStyle=elbowEdgeStyle;rounded=0;orthogonalLoop=1;jettySize=auto;html=1;fontSize=8;" parent="1" source="nqFcclDZsv5z8-_tzMHj-158" target="nqFcclDZsv5z8-_tzMHj-160" edge="1">
                    <mxGeometry relative="1" as="geometry"/>
                </mxCell>
                <mxCell id="nqFcclDZsv5z8-_tzMHj-158" value="&lt;font style=&quot;font-size: 10px&quot;&gt;사용자타입을 'person'으로 정함&lt;br&gt;@DISPOSER_TYPE &#9;= 'person'&lt;/font&gt;" style="whiteSpace=wrap;html=1;shadow=0;strokeWidth=1;spacing=6;spacingTop=-4;" parent="1" vertex="1">
                    <mxGeometry x="-1175.9099999999999" y="-1110" width="215.91" height="60" as="geometry"/>
                </mxCell>
                <mxCell id="nqFcclDZsv5z8-_tzMHj-163" value="" style="edgeStyle=elbowEdgeStyle;rounded=0;orthogonalLoop=1;jettySize=auto;html=1;fontSize=8;" parent="1" source="nqFcclDZsv5z8-_tzMHj-160" target="nqFcclDZsv5z8-_tzMHj-162" edge="1">
                    <mxGeometry relative="1" as="geometry"/>
                </mxCell>
                <mxCell id="nqFcclDZsv5z8-_tzMHj-160" value="sp_insert_site_wste_discharge&lt;br&gt;_order_without_handler&lt;br&gt;폐기물배출신청정보를 등록한 후 &lt;br&gt;그 결과를&amp;nbsp;@rtn_val에 반환한다" style="shape=hexagon;perimeter=hexagonPerimeter2;whiteSpace=wrap;html=1;fixedSize=1;shadow=0;strokeWidth=1;spacing=6;spacingTop=-4;" parent="1" vertex="1">
                    <mxGeometry x="-1175.94" y="-980" width="215.94" height="80" as="geometry"/>
                </mxCell>
                <mxCell id="nqFcclDZsv5z8-_tzMHj-164" style="edgeStyle=elbowEdgeStyle;rounded=0;orthogonalLoop=1;jettySize=auto;html=1;entryX=0.5;entryY=1;entryDx=0;entryDy=0;fontSize=8;" parent="1" source="nqFcclDZsv5z8-_tzMHj-162" target="nqFcclDZsv5z8-_tzMHj-9" edge="1">
                    <mxGeometry relative="1" as="geometry">
                        <Array as="points">
                            <mxPoint x="-650" y="-2820"/>
                            <mxPoint x="-795" y="-2810"/>
                        </Array>
                    </mxGeometry>
                </mxCell>
                <mxCell id="nqFcclDZsv5z8-_tzMHj-165" value="FALSE" style="edgeLabel;html=1;align=center;verticalAlign=middle;resizable=0;points=[];fontSize=8;" parent="nqFcclDZsv5z8-_tzMHj-164" vertex="1" connectable="0">
                    <mxGeometry x="-0.9421" y="-1" relative="1" as="geometry">
                        <mxPoint as="offset"/>
                    </mxGeometry>
                </mxCell>
                <mxCell id="nqFcclDZsv5z8-_tzMHj-167" value="" style="edgeStyle=elbowEdgeStyle;rounded=0;orthogonalLoop=1;jettySize=auto;html=1;fontSize=8;" parent="1" source="nqFcclDZsv5z8-_tzMHj-162" target="nqFcclDZsv5z8-_tzMHj-166" edge="1">
                    <mxGeometry relative="1" as="geometry"/>
                </mxCell>
                <mxCell id="nqFcclDZsv5z8-_tzMHj-168" value="TRUE: 성공" style="edgeLabel;html=1;align=center;verticalAlign=middle;resizable=0;points=[];fontSize=8;" parent="nqFcclDZsv5z8-_tzMHj-167" vertex="1" connectable="0">
                    <mxGeometry x="-0.2997" y="-1" relative="1" as="geometry">
                        <mxPoint as="offset"/>
                    </mxGeometry>
                </mxCell>
                <mxCell id="nqFcclDZsv5z8-_tzMHj-162" value="&lt;font style=&quot;font-size: 10px&quot;&gt;등록 성공?&lt;br&gt;@rtn_val = 0&lt;/font&gt;" style="rhombus;whiteSpace=wrap;html=1;shadow=0;strokeWidth=1;spacing=6;spacingTop=-4;" parent="1" vertex="1">
                    <mxGeometry x="-1177.97" y="-830" width="220" height="100" as="geometry"/>
                </mxCell>
                <mxCell id="nqFcclDZsv5z8-_tzMHj-166" value="sp_return_results&lt;br&gt;(@rtn_val, @msg_txt, @json_data)&lt;br&gt;결과를 반환한다." style="shape=hexagon;perimeter=hexagonPerimeter2;whiteSpace=wrap;html=1;fixedSize=1;shadow=0;strokeWidth=1;spacing=6;spacingTop=-4;" parent="1" vertex="1">
                    <mxGeometry x="-1177.95" y="-660" width="220" height="100" as="geometry"/>
                </mxCell>
                <mxCell id="nqFcclDZsv5z8-_tzMHj-173" value="" style="edgeStyle=elbowEdgeStyle;rounded=0;orthogonalLoop=1;jettySize=auto;html=1;fontSize=8;" parent="1" source="nqFcclDZsv5z8-_tzMHj-170" target="nqFcclDZsv5z8-_tzMHj-172" edge="1">
                    <mxGeometry relative="1" as="geometry"/>
                </mxCell>
                <mxCell id="nqFcclDZsv5z8-_tzMHj-170" value="&lt;font style=&quot;font-size: 10px&quot;&gt;사용자타입을 'company'으로 정함&lt;br&gt;@DISPOSER_TYPE = 'company'&lt;/font&gt;" style="whiteSpace=wrap;html=1;shadow=0;strokeWidth=1;spacing=6;spacingTop=-4;" parent="1" vertex="1">
                    <mxGeometry x="-1484.0700000000002" y="-1260" width="224.07" height="60" as="geometry"/>
                </mxCell>
                <mxCell id="nqFcclDZsv5z8-_tzMHj-175" value="" style="edgeStyle=elbowEdgeStyle;rounded=0;orthogonalLoop=1;jettySize=auto;html=1;fontSize=8;" parent="1" source="nqFcclDZsv5z8-_tzMHj-172" target="nqFcclDZsv5z8-_tzMHj-174" edge="1">
                    <mxGeometry relative="1" as="geometry"/>
                </mxCell>
                <mxCell id="nqFcclDZsv5z8-_tzMHj-172" value="&lt;font style=&quot;font-size: 10px&quot;&gt;sp_req_site_exists&lt;br&gt;사이트가 존재하는지 검사한 후 그 결과를&amp;nbsp;@rtn_val에 반환한다&lt;/font&gt;" style="shape=hexagon;perimeter=hexagonPerimeter2;whiteSpace=wrap;html=1;fixedSize=1;shadow=0;strokeWidth=1;spacing=6;spacingTop=-4;" parent="1" vertex="1">
                    <mxGeometry x="-1484.07" y="-1120" width="224.06" height="80" as="geometry"/>
                </mxCell>
                <mxCell id="nqFcclDZsv5z8-_tzMHj-176" value="" style="edgeStyle=elbowEdgeStyle;rounded=0;orthogonalLoop=1;jettySize=auto;html=1;fontSize=8;" parent="1" source="nqFcclDZsv5z8-_tzMHj-174" target="nqFcclDZsv5z8-_tzMHj-160" edge="1">
                    <mxGeometry relative="1" as="geometry"/>
                </mxCell>
                <mxCell id="nqFcclDZsv5z8-_tzMHj-177" value="TRUE" style="edgeLabel;html=1;align=center;verticalAlign=middle;resizable=0;points=[];fontSize=8;" parent="nqFcclDZsv5z8-_tzMHj-176" vertex="1" connectable="0">
                    <mxGeometry x="-0.4058" y="1" relative="1" as="geometry">
                        <mxPoint x="4" y="1" as="offset"/>
                    </mxGeometry>
                </mxCell>
                <mxCell id="nqFcclDZsv5z8-_tzMHj-174" value="&lt;font style=&quot;font-size: 10px&quot;&gt;사이트 존재?&lt;br&gt;@rtn_val = 0&lt;/font&gt;&lt;span style=&quot;font-size: 8px&quot;&gt;&lt;br&gt;&lt;/span&gt;" style="rhombus;whiteSpace=wrap;html=1;shadow=0;strokeWidth=1;spacing=6;spacingTop=-4;" parent="1" vertex="1">
                    <mxGeometry x="-1480.01" y="-980" width="215.94" height="80" as="geometry"/>
                </mxCell>
                <mxCell id="nqFcclDZsv5z8-_tzMHj-178" style="edgeStyle=orthogonalEdgeStyle;rounded=0;orthogonalLoop=1;jettySize=auto;html=1;fontSize=8;entryX=0.5;entryY=0;entryDx=0;entryDy=0;exitX=0;exitY=0.5;exitDx=0;exitDy=0;" parent="1" source="nqFcclDZsv5z8-_tzMHj-174" target="nqFcclDZsv5z8-_tzMHj-9" edge="1">
                    <mxGeometry relative="1" as="geometry">
                        <mxPoint x="-1400" y="-1280" as="sourcePoint"/>
                        <mxPoint x="-760.0700000000002" y="-3280" as="targetPoint"/>
                        <Array as="points">
                            <mxPoint x="-1580" y="-940"/>
                            <mxPoint x="-1580" y="-3480"/>
                            <mxPoint x="-650" y="-3480"/>
                        </Array>
                    </mxGeometry>
                </mxCell>
                <mxCell id="nqFcclDZsv5z8-_tzMHj-179" value="FALSE" style="edgeLabel;html=1;align=center;verticalAlign=middle;resizable=0;points=[];fontSize=8;" parent="nqFcclDZsv5z8-_tzMHj-178" vertex="1" connectable="0">
                    <mxGeometry x="-0.9816" y="-1" relative="1" as="geometry">
                        <mxPoint x="4" y="1" as="offset"/>
                    </mxGeometry>
                </mxCell>
                <mxCell id="4" value="" style="edgeStyle=none;html=1;" edge="1" parent="1" source="2" target="3">
                    <mxGeometry relative="1" as="geometry"/>
                </mxCell>
                <mxCell id="14" value="TRUE" style="edgeLabel;html=1;align=center;verticalAlign=middle;resizable=0;points=[];fontSize=8;" vertex="1" connectable="0" parent="4">
                    <mxGeometry x="-0.2672" relative="1" as="geometry">
                        <mxPoint as="offset"/>
                    </mxGeometry>
                </mxCell>
                <mxCell id="24" value="" style="edgeStyle=orthogonalEdgeStyle;html=1;fontSize=8;" edge="1" parent="1" source="2" target="23">
                    <mxGeometry relative="1" as="geometry"/>
                </mxCell>
                <mxCell id="25" value="FALSE" style="edgeLabel;html=1;align=center;verticalAlign=middle;resizable=0;points=[];fontSize=8;" vertex="1" connectable="0" parent="24">
                    <mxGeometry x="-0.141" relative="1" as="geometry">
                        <mxPoint as="offset"/>
                    </mxGeometry>
                </mxCell>
                <mxCell id="2" value="&lt;font style=&quot;font-size: 10px&quot;&gt;입찰종료일이 존재하는가?&lt;br&gt;IN_BIDDING_END_AT IS NOT NULL&lt;/font&gt;" style="rhombus;whiteSpace=wrap;html=1;shadow=0;strokeWidth=1;spacing=6;spacingTop=-4;" vertex="1" parent="1">
                    <mxGeometry x="-1177.97" y="-2660" width="220" height="100" as="geometry"/>
                </mxCell>
                <mxCell id="5" value="" style="edgeStyle=none;html=1;entryX=0.5;entryY=0;entryDx=0;entryDy=0;" edge="1" parent="1" source="3" target="8">
                    <mxGeometry relative="1" as="geometry"/>
                </mxCell>
                <mxCell id="3" value="&lt;font style=&quot;font-size: 10px&quot;&gt;@BIDDING_END_AT&lt;br&gt;=입찰종료일+ 23:59:59&lt;/font&gt;" style="whiteSpace=wrap;html=1;shadow=0;strokeWidth=1;spacing=6;spacingTop=-4;" vertex="1" parent="1">
                    <mxGeometry x="-1175.94" y="-2490" width="215.94" height="60" as="geometry"/>
                </mxCell>
                <mxCell id="10" value="" style="edgeStyle=orthogonalEdgeStyle;html=1;fontSize=8;" edge="1" parent="1" source="8" target="9">
                    <mxGeometry relative="1" as="geometry"/>
                </mxCell>
                <mxCell id="33" value="TRUE" style="edgeLabel;html=1;align=center;verticalAlign=middle;resizable=0;points=[];fontSize=8;" vertex="1" connectable="0" parent="10">
                    <mxGeometry x="-0.2345" relative="1" as="geometry">
                        <mxPoint as="offset"/>
                    </mxGeometry>
                </mxCell>
                <mxCell id="31" value="" style="edgeStyle=orthogonalEdgeStyle;html=1;fontSize=8;" edge="1" parent="1" source="8" target="30">
                    <mxGeometry relative="1" as="geometry"/>
                </mxCell>
                <mxCell id="32" value="FALSE" style="edgeLabel;html=1;align=center;verticalAlign=middle;resizable=0;points=[];fontSize=8;" vertex="1" connectable="0" parent="31">
                    <mxGeometry x="-0.2238" y="-1" relative="1" as="geometry">
                        <mxPoint as="offset"/>
                    </mxGeometry>
                </mxCell>
                <mxCell id="8" value="&lt;font style=&quot;font-size: 10px&quot;&gt;계약종료일이 존재하는가?&lt;br&gt;IN_CLOSE_AT IS NOT NULL&lt;/font&gt;" style="rhombus;whiteSpace=wrap;html=1;shadow=0;strokeWidth=1;spacing=6;spacingTop=-4;" vertex="1" parent="1">
                    <mxGeometry x="-1177.91" y="-2360" width="220" height="100" as="geometry"/>
                </mxCell>
                <mxCell id="11" value="" style="edgeStyle=orthogonalEdgeStyle;html=1;fontSize=8;" edge="1" parent="1" source="9" target="nqFcclDZsv5z8-_tzMHj-98">
                    <mxGeometry relative="1" as="geometry"/>
                </mxCell>
                <mxCell id="9" value="&lt;font style=&quot;font-size: 10px&quot;&gt;@CLOSE_AT= 계약종료일 + 23:59:59&lt;/font&gt;" style="whiteSpace=wrap;html=1;shadow=0;strokeWidth=1;spacing=6;spacingTop=-4;" vertex="1" parent="1">
                    <mxGeometry x="-1175.88" y="-2190" width="215.94" height="60" as="geometry"/>
                </mxCell>
                <mxCell id="18" style="edgeStyle=orthogonalEdgeStyle;html=1;entryX=1;entryY=0.5;entryDx=0;entryDy=0;fontSize=8;exitX=0.5;exitY=1;exitDx=0;exitDy=0;" edge="1" parent="1" source="15" target="2">
                    <mxGeometry relative="1" as="geometry"/>
                </mxCell>
                <mxCell id="15" value="&lt;font style=&quot;font-size: 10px&quot;&gt;@REF_DATE = @REG_DT&lt;/font&gt;" style="whiteSpace=wrap;html=1;shadow=0;strokeWidth=1;spacing=6;spacingTop=-4;" vertex="1" parent="1">
                    <mxGeometry x="-860" y="-2970" width="155.9" height="60" as="geometry"/>
                </mxCell>
                <mxCell id="44" value="" style="edgeStyle=orthogonalEdgeStyle;html=1;fontSize=8;" edge="1" parent="1" source="23" target="43">
                    <mxGeometry relative="1" as="geometry"/>
                </mxCell>
                <mxCell id="23" value="&lt;font style=&quot;font-size: 10px&quot;&gt;sp_req_policy_direction&lt;br&gt;입찰종료일을 자동결정하기 위하여 &lt;br&gt;방문종료일로부터의 기간을 반환받는다bidding_end_date_after&lt;br&gt;_the_visit_early_closing&lt;/font&gt;" style="shape=hexagon;perimeter=hexagonPerimeter2;whiteSpace=wrap;html=1;fixedSize=1;shadow=0;strokeWidth=1;spacing=6;spacingTop=-4;" vertex="1" parent="1">
                    <mxGeometry x="-1480" y="-2650" width="215.94" height="80" as="geometry"/>
                </mxCell>
                <mxCell id="29" style="edgeStyle=orthogonalEdgeStyle;html=1;entryX=0;entryY=0.5;entryDx=0;entryDy=0;fontSize=8;exitX=0.5;exitY=1;exitDx=0;exitDy=0;" edge="1" parent="1" source="43" target="8">
                    <mxGeometry relative="1" as="geometry">
                        <mxPoint x="-1372.0300000000002" y="-2420" as="sourcePoint"/>
                    </mxGeometry>
                </mxCell>
                <mxCell id="42" value="" style="edgeStyle=orthogonalEdgeStyle;html=1;fontSize=8;" edge="1" parent="1" source="30" target="41">
                    <mxGeometry relative="1" as="geometry"/>
                </mxCell>
                <mxCell id="30" value="&lt;font style=&quot;font-size: 10px&quot;&gt;sp_req_policy_direction&lt;br&gt;입찰마감일로부터 배출종료일까지의 &lt;br&gt;최소 소요기간(단위: day)을 반환받는다max_disposal_duration&lt;/font&gt;" style="shape=hexagon;perimeter=hexagonPerimeter2;whiteSpace=wrap;html=1;fixedSize=1;shadow=0;strokeWidth=1;spacing=6;spacingTop=-4;" vertex="1" parent="1">
                    <mxGeometry x="-890.02" y="-2350" width="215.94" height="80" as="geometry"/>
                </mxCell>
                <mxCell id="37" style="edgeStyle=orthogonalEdgeStyle;html=1;entryX=1;entryY=0.5;entryDx=0;entryDy=0;fontSize=8;exitX=0.5;exitY=1;exitDx=0;exitDy=0;" edge="1" parent="1" source="41" target="nqFcclDZsv5z8-_tzMHj-98">
                    <mxGeometry relative="1" as="geometry">
                        <mxPoint x="-782.0500000000002" y="-2120" as="sourcePoint"/>
                    </mxGeometry>
                </mxCell>
                <mxCell id="41" value="&lt;font style=&quot;font-size: 10px&quot;&gt;@CLOSE_AT&lt;br&gt;=&amp;nbsp;@BIDDING_END_AT&amp;nbsp;&lt;br&gt;+&amp;nbsp;max_disposal_duration&lt;/font&gt;" style="whiteSpace=wrap;html=1;shadow=0;strokeWidth=1;spacing=6;spacingTop=-4;" vertex="1" parent="1">
                    <mxGeometry x="-890.0200000000001" y="-2190" width="215.94" height="60" as="geometry"/>
                </mxCell>
                <mxCell id="43" value="&lt;font style=&quot;font-size: 10px&quot;&gt;@BIDDING_END_AT&lt;br&gt;= @REF_DATE &lt;br&gt;+&amp;nbsp;bidding_end_date_after&lt;br&gt;_the_visit_early_closing&lt;/font&gt;" style="whiteSpace=wrap;html=1;shadow=0;strokeWidth=1;spacing=6;spacingTop=-4;" vertex="1" parent="1">
                    <mxGeometry x="-1480" y="-2490" width="215.94" height="60" as="geometry"/>
                </mxCell>
                <mxCell id="45" value="&lt;font style=&quot;font-size: 10px&quot;&gt;@OPEN_AT = 폐기물 배출시작일&lt;/font&gt;" style="whiteSpace=wrap;html=1;shadow=0;strokeWidth=1;spacing=6;spacingTop=-4;" vertex="1" parent="1">
                    <mxGeometry x="-1480.0000000000002" y="-2040" width="215.94" height="60" as="geometry"/>
                </mxCell>
                <mxCell id="46" value="&lt;font style=&quot;font-size: 10px&quot;&gt;@OPEN_AT = @REG_DT&lt;/font&gt;" style="whiteSpace=wrap;html=1;shadow=0;strokeWidth=1;spacing=6;spacingTop=-4;" vertex="1" parent="1">
                    <mxGeometry x="-1175.94" y="-1890" width="215.94" height="60" as="geometry"/>
                </mxCell>
                <mxCell id="47" value="&lt;font style=&quot;font-size: 10px&quot;&gt;sp_req_get_user_current_type&lt;br&gt;현재 사용자의 타입을 구하여&amp;nbsp;&lt;br&gt;@USER_CURRENT_TYPE_CODE&lt;br&gt;에 반환한다&lt;/font&gt;" style="shape=hexagon;perimeter=hexagonPerimeter2;whiteSpace=wrap;html=1;fixedSize=1;shadow=0;strokeWidth=1;spacing=6;spacingTop=-4;" vertex="1" parent="1">
                    <mxGeometry x="-1175.94" y="-1750" width="215.94" height="80" as="geometry"/>
                </mxCell>
            </root>
        </mxGraphModel>
    </diagram>
</mxfile>